<?xml version="1.0" encoding="utf-8"?>
<!-- Generator: Adobe Illustrator 25.2.1, SVG Export Plug-In . SVG Version: 6.00 Build 0)  -->
<svg version="1.1" id="Layer_1" xmlns="http://www.w3.org/2000/svg" xmlns:xlink="http://www.w3.org/1999/xlink" x="0px" y="0px"
	 viewBox="0 0 337.90216 196.11" style="enable-background:new 0 0 337.90216 196.11;" xml:space="preserve">
<style type="text/css">
	.st0{fill:#231F20;}
</style>
<g>
	<polygon class="st0" points="243.13269,161.2 240.01794,153.70212 236.90326,161.2 228.80986,161.84517 234.97827,167.1244 
		233.09099,175.02112 240.01794,170.78589 246.94501,175.02112 245.05768,167.1244 251.22607,161.84517 	"/>
	<polygon class="st0" points="211.70248,161.94958 208.27628,153.70212 204.85011,161.94958 195.94746,162.65942 
		202.73268,168.4666 200.65663,177.15286 208.27628,172.49431 215.89597,177.15286 213.8199,168.4666 220.60513,162.65942 	"/>
	<polygon class="st0" points="179.64934,161.2 176.53459,153.70212 173.41991,161.2 165.32651,161.84517 171.49492,167.1244 
		169.60764,175.02112 176.53459,170.78589 183.46165,175.02112 181.57431,167.1244 187.74272,161.84517 	"/>
	<polygon class="st0" points="147.64812,160.57498 144.79292,153.70212 141.93777,160.57498 134.51886,161.16663 
		140.17323,166.00595 138.44319,173.24448 144.79292,169.36227 151.1427,173.24448 149.41266,166.00595 155.06706,161.16663 	"/>
	<polygon class="st0" points="274.61484,160.57498 271.75961,153.70212 268.90448,160.57498 261.48553,161.16663 
		267.13995,166.00595 265.40991,173.24448 271.75961,169.36227 278.10941,173.24448 276.37936,166.00595 282.03378,161.16663 	"/>
	<path class="st0" d="M118.80093,86.78063c-0.86896,0.00509-1.85977,0.04675-2.96956,0.12553
		c-1.11163,0.07822-2.24526,0.16982-3.40453,0.27236c-1.15833,0.10442-2.30567,0.23089-3.43931,0.38187
		c-1.13453,0.15116-2.13628,0.27802-3.00438,0.37904c-0.62812,0.10084-1.04755,0.56187-1.26086,1.38365
		c-0.21247,0.82368-0.25549,1.72934-0.12911,2.71812c0.12543,0.98991,0.39737,1.9427,0.81218,2.85703
		c0.41575,0.91566,0.96239,1.51598,1.64094,1.80209c0.00914,1.54651,0.0293,3.21308,0.06408,4.99953
		c0.03388,1.78702,0.06776,3.54971,0.10254,5.28867c0.03298,1.73838,0.06597,3.38064,0.09985,4.92639
		c0.03204,1.54651,0.05311,2.87381,0.05857,3.98454c0.01009,1.73895-0.00641,3.22458-0.04669,4.45613
		c-0.04213,1.23212-0.07233,2.41711-0.08972,3.55103c-0.01833,1.13561-0.04764,2.34436-0.08698,3.62398
		c-0.04213,1.28056-0.05768,2.83799-0.04764,4.67307c0.00735,1.30487,0.61625,2.25539,1.82862,2.85251
		c1.21053,0.59656,2.8542,0.88945,4.93096,0.87758c0.53111-0.00264,1.05122-0.0426,1.55759-0.11761
		c0.50641-0.07501,0.96423-0.23541,1.37447-0.47836c0.40746-0.24504,0.73254-0.60768,0.97154-1.09245
		c0.23805-0.48402,0.35619-1.13637,0.35162-1.95778c-0.00368-0.77298-0.03661-2.16191-0.09523-4.16643
		c-0.06136-2.00302-0.12177-4.21299-0.18311-6.6286c0.92574,1.39591,1.90001,2.94902,2.92376,4.65668
		c1.02374,1.71011,2.11983,3.31015,3.28729,4.80011c1.16752,1.4911,2.40646,2.73961,3.7168,3.74687
		c1.31033,1.00725,2.71318,1.50673,4.21124,1.49863c1.35152-0.00772,2.53369-0.2569,3.54552-0.74545
		c1.01183-0.48892,1.78102-1.04759,2.30934-1.67938c0.52748-0.62953,0.79027-1.24701,0.78749-1.85147
		c-0.00363-0.60335-0.32137-1.0493-0.95047-1.33542c-0.33881-0.14249-0.90836-0.59805-1.70959-1.36763
		c-0.80214-0.7675-1.76176-1.71596-2.87891-2.84497c-1.11804-1.12864-2.34416-2.3781-3.68015-3.748
		c-1.33597-1.36858-2.73239-2.74884-4.18923-4.14155c1.78466-0.34813,3.43653-0.98577,4.95292-1.91254
		c1.51636-0.92526,2.81299-2.09198,3.89258-3.49976c1.07869-1.40646,1.92662-3.02912,2.54471-4.86872
		c0.61714-1.83865,0.92117-3.82056,0.90924-5.94685c-0.01828-3.13901-0.64828-5.70747-1.8918-7.70596
		c-1.24258-1.99623-2.79832-3.57026-4.66356-4.71906c-1.86618-1.14862-3.8871-1.94572-6.06366-2.39355
		C122.71366,86.98853,120.68449,86.77007,118.80093,86.78063z M126.64651,103.32893c0.00552,1.06323-0.09702,2.12666-0.30855,3.1899
		c-0.21063,1.06437-0.55673,2.02092-1.03383,2.8674c-0.47889,0.84893-1.12812,1.52823-1.94582,2.04015
		c-0.81773,0.51192-1.85519,0.77052-3.11059,0.77731c-0.09796,0.00056-0.44779-0.03279-1.05122-0.10197
		c-0.60432-0.06918-1.09975-0.29536-1.48888-0.68043c-0.00641-1.15917-0.00184-2.41467,0.01555-3.76703
		c0.01649-1.352,0.03204-2.72868,0.04943-4.13024c0.01559-1.40044,0.03204-2.77769,0.04854-4.13062
		c0.01649-1.35162,0.022-2.6088,0.01559-3.76797c1.44769-0.00792,2.7168,0.0933,3.80463,0.30478
		c1.08878,0.2111,1.99623,0.60447,2.72421,1.17991c0.72703,0.576,1.28654,1.3584,1.67934,2.34549
		C126.43683,100.44418,126.63737,101.73473,126.64651,103.32893z"/>
	<path class="st0" d="M144.27257,132.39423c1.45505,1.22345,3.03001,2.05937,4.72311,2.50891
		c1.6931,0.44916,3.28912,0.66988,4.7863,0.66158c2.4641-0.01357,4.73042-0.49797,6.80261-1.45132
		c2.07129-0.95372,3.93747-2.20677,5.59485-3.76288c0.92145-0.86458,1.76845-1.80286,2.55499-2.80125
		c0.49641,1.23363,1.10286,2.34454,1.82933,3.31995c1.0228,1.37123,2.2242,2.43974,3.60503,3.20386
		c1.38177,0.76505,2.86887,1.14334,4.46216,1.13409c0.9166-0.00508,1.82127-0.26369,2.71318-0.77504
		c0.88913-0.51248,1.73155-1.18123,2.52361-2.00679c0.793-0.82593,1.51273-1.74762,2.15828-2.76581
		c0.64645-1.01819,1.18491-2.05975,1.61252-3.12524c0.05222,0.67722,0.24998,1.47301,0.59335,2.38771
		c0.34341,0.9166,0.81863,1.77081,1.42758,2.56395c0.608,0.79427,1.3607,1.46678,2.25713,2.01677
		c0.89743,0.55075,1.90005,0.82274,3.01173,0.81633c1.54567-0.00887,3.01532-0.57187,4.41086-1.69127
		c1.39365-1.11903,2.67834-2.53888,3.85226-4.26067c1.17392-1.72067,2.23701-3.6106,3.19211-5.66997
		c0.95505-2.05711,1.75352-4.0671,2.3945-6.02658c0.64099-1.96042,1.13821-3.71369,1.49167-5.26208
		c0.35344-1.54745,0.52837-2.6595,0.52469-3.33578c-0.00552-0.91697-0.32414-1.66468-0.95416-2.24069
		c-0.63184-0.576-1.23711-0.8625-1.81674-0.85929c-0.532,0.0032-0.89275,0.24767-1.08321,0.73056
		c-0.14194,0.38828-0.40384,1.13787-0.78386,2.25087c-0.38094,1.11356-0.84427,2.38432-1.39182,3.81152
		c-0.54759,1.42852-1.15564,2.9411-1.8222,4.53812c-0.66757,1.59834-1.35893,3.05154-2.07587,4.35962
		c-0.71794,1.30808-1.42574,2.38809-2.11983,3.23608c-0.69594,0.85006-1.38268,1.27604-2.05849,1.27999
		c-0.33784,0.00188-0.74992-0.17717-1.23433-0.53604c-0.48529-0.35982-0.7307-1.19179-0.73805-2.49571
		c-0.01187-2.12534,0.03387-4.45708,0.14192-6.9935c0.10532-2.53699,0.23627-5.08434,0.39102-7.64603
		c0.15474-2.56074,0.32141-5.06154,0.50179-7.50221c0.17859-2.43992,0.34705-4.62652,0.50636-6.55942
		c0.15842-1.93271,0.29393-3.52728,0.4075-4.78503c0.11356-1.25587,0.17029-1.98115,0.1694-2.17472
		c-0.00458-0.77184-0.57596-1.34841-1.71327-1.72934c-1.13727-0.37961-2.38168-0.56621-3.73415-0.55848
		c-1.25633,0.00679-2.38992,0.19452-3.40269,0.56263c-1.01183,0.36754-1.51546,0.96277-1.51088,1.78324
		c0,0.049-0.01009,0.54396-0.02837,1.48619c-0.01923,0.94186-0.03667,2.13721-0.05222,3.58685
		c-0.01649,1.44906-0.01833,3.05513-0.00824,4.81783c0.00919,1.76402,0.01923,3.49016,0.02841,5.18047
		c-1.31039-1.00687-2.93205-1.50485-4.8632-1.49392c-1.73891,0.00961-3.45123,0.45368-5.13609,1.33277
		c-1.68669,0.87908-3.21223,2.15549-4.58029,3.8298c-1.36618,1.67448-2.46683,3.72105-3.29738,6.14117
		c-0.62822,1.82904-1.01273,3.86429-1.15645,6.10348c-0.03787,0.06955-0.07256,0.13759-0.11087,0.20733
		c-0.93309,1.69673-1.97418,3.24757-3.12614,4.65498c-1.15102,1.4074-2.42564,2.57393-3.82112,3.49919
		c-1.39642,0.92621-2.91467,1.3929-4.55646,1.40195c-1.25728,0.00735-2.27184-0.17944-3.04739-0.56262
		c-0.77472-0.38093-1.40562-0.90849-1.89182-1.58327c1.25446-0.10348,2.6161-0.52153,4.0867-1.25492
		c1.46877-0.73264,2.82669-1.74178,4.07751-3.02912c1.24809-1.28696,2.30205-2.82669,3.16096-4.61917
		c0.85982-1.79153,1.28287-3.79926,1.27005-6.02148c-0.01555-2.89737-0.82594-5.28395-2.43115-7.15898
		c-1.60428-1.87485-4.00061-2.80332-7.18811-2.78542c-2.51263,0.01414-4.68283,0.61861-6.51144,1.81171
		c-1.82957,1.19498-3.34319,2.71265-4.53906,4.55414c-1.19772,1.84319-2.09236,3.86373-2.68297,6.06503
		c-0.59152,2.20187-0.88177,4.29215-0.8708,6.27293c0.01923,3.38158,0.50546,6.15531,1.45963,8.32401
		C141.61066,129.47406,142.81572,131.16946,144.27257,132.39423z M177.97531,115.21263
		c0.40016-1.74103,0.923-3.31279,1.56767-4.7185c0.64372-1.40364,1.3616-2.54321,2.1546-3.41721
		c0.79115-0.87362,1.59787-1.3126,2.41924-1.31731c0.72523-0.00415,1.29384,0.31873,1.70865,0.96843
		c0.41296,0.6497,0.62265,1.16784,0.6245,1.55386c0.00095,0.14419,0.02473,0.2422,0.07417,0.28932
		c-0.04486,0.77335-0.08972,1.37669-0.13553,1.81208c-0.04575,0.43559-0.06865,0.67722-0.06776,0.72491
		c0.00185,0.38734-0.09155,1.0278-0.27928,1.92159c-0.18863,0.89586-0.44868,1.89897-0.78014,3.01159
		c-0.3315,1.11356-0.71147,2.26218-1.14005,3.44756c-0.42761,1.18764-0.89279,2.27726-1.39458,3.26906
		c-0.5018,0.9935-0.99261,1.8166-1.4715,2.4714c-0.47983,0.65555-0.9615,0.98445-1.44313,0.98709
		c-0.57964,0.0032-1.12628-0.46518-1.6391-1.40364c-0.51187-0.93959-0.77373-2.42352-0.78564-4.45255
		C177.3783,118.66979,177.57333,116.95384,177.97531,115.21263z M149.57347,115.11839
		c0.25732-1.37762,0.61263-2.68344,1.06404-3.91782c0.45142-1.23514,0.96602-2.27632,1.54109-3.12431
		c0.57506-0.84742,1.17575-1.27453,1.80388-1.27773c0.43497-0.00282,0.79756,0.18905,1.09061,0.57318
		c0.29117,0.38544,0.52286,0.85534,0.69499,1.40835c0.17308,0.55489,0.29668,1.10979,0.37268,1.66431
		c0.0751,0.55527,0.11446,1.00311,0.11629,1.34012c0.00552,1.06304-0.24173,2.09084-0.74352,3.08359
		c-0.50179,0.99387-1.11256,1.88992-1.83319,2.69154c-0.71973,0.80068-1.47701,1.49355-2.27,2.07766
		c-0.79478,0.5843-1.50537,0.97578-2.1317,1.17123c-0.05037-0.38601-0.07695-0.73584-0.07874-1.04985
		c-0.00095-0.3142-0.00279-0.64009-0.00552-0.9788C149.18887,117.71852,149.31436,116.49733,149.57347,115.11839z"/>
	<path class="st0" d="M223.14061,132.74725c1.38361,1.17651,3.00711,2.07219,4.86961,2.68967
		c1.8625,0.61671,3.80925,0.92093,5.83842,0.90944c1.93025-0.01056,3.87334-0.29988,5.82649-0.86591
		c1.95406-0.56676,3.72411-1.38629,5.3119-2.45763c1.58871-1.07002,2.87343-2.35831,3.85594-3.86185
		c0.97978-1.50184,1.46692-3.1963,1.45595-5.07982c-0.01009-1.83602-0.4789-3.42645-1.40373-4.77486
		c-0.92485-1.34596-2.09236-2.56017-3.49792-3.63943c-1.40836-1.07907-2.91005-2.08407-4.50977-3.01762
		c-1.5997-0.933-3.10234-1.90274-4.50885-2.90962c-1.40556-1.00537-2.57124-2.1097-3.49515-3.31242
		c-0.92484-1.20196-1.39186-2.6005-1.4001-4.1947c-0.00551-0.91716,0.13463-1.75139,0.42032-2.5023
		c0.28569-0.74979,0.68033-1.40421,1.18396-1.96268c0.50452-0.55772,1.08142-0.99576,1.73155-1.31392
		c0.64923-0.31741,1.33691-0.47894,2.0612-0.48308c1.11073-0.00603,1.86067,0.25539,2.25078,0.78465
		c0.39008,0.52983,0.58789,1.34973,0.59335,2.46046c0.00735,1.30393-0.11813,2.6335-0.37541,3.987
		c-0.25822,1.35463-0.3846,2.49062-0.37909,3.40759c0.00363,0.67684,0.30765,1.1703,0.91382,1.47978
		c0.60527,0.311,1.34332,0.46424,2.21233,0.45934c0.57964-0.0032,1.19498-0.08029,1.84694-0.22844
		c0.65103-0.14853,1.25262-0.34342,1.80757-0.58939c0.55305-0.24447,1.03561-0.53699,1.44492-0.87759
		c0.4075-0.33984,0.68405-0.72849,0.82687-1.16388c0.28386-0.82217,0.52101-1.78928,0.70784-2.90228
		c0.1859-1.11168,0.27652-2.32024,0.26921-3.62416c-0.00641-1.20705-0.19504-2.5713-0.56682-4.09142
		c-0.37085-1.51918-1.01918-2.9394-1.94402-4.26331c-0.92485-1.32278-2.16376-2.43897-3.71404-3.34822
		c-1.55116-0.90849-3.51068-1.35708-5.87592-1.34389c-2.22148,0.01282-4.32024,0.49496-6.29536,1.44868
		c-1.97606,0.95278-3.71948,2.20715-5.23131,3.76063c-1.51363,1.55537-2.71133,3.32447-3.59406,5.3092
		c-0.88272,1.98662-1.31674,4.01752-1.30577,6.09386c0.01193,2.12628,0.48073,4.03129,1.40924,5.71577
		c0.92575,1.68617,2.09326,3.20158,3.5034,4.54547c1.40741,1.34426,2.92287,2.55565,4.5482,3.63339
		c1.62445,1.07775,3.13901,2.09613,4.54642,3.05382c1.40462,0.95919,2.56847,1.86938,3.4924,2.73433
		c0.92117,0.86344,1.38635,1.75572,1.39091,2.67232c0.00368,0.62822-0.21057,1.13637-0.64278,1.52559
		c-0.43224,0.3896-0.9377,0.66987-1.51639,0.84139c-0.57869,0.17322-1.14735,0.28536-1.70135,0.33569
		c-0.55489,0.05183-0.92941,0.07784-1.1217,0.07879c-1.25723,0.00735-2.44214-0.28763-3.5556-0.8855
		c-1.11531-0.59749-2.10886-1.30392-2.98332-2.12063c-0.87358-0.81651-1.60333-1.6694-2.18759-2.55998
		c-0.5851-0.8904-0.99901-1.64905-1.24442-2.27575c-0.19687-0.5304-0.68123-0.79314-1.45316-0.78862
		c-0.43498,0.00245-0.91844,0.09029-1.44864,0.26199c-0.5311,0.17209-1.01183,0.41655-1.44402,0.73207
		c-0.43314,0.31778-0.7939,0.68118-1.08144,1.09339c-0.28752,0.41241-0.42946,0.83555-0.42761,1.27057
		c0.01282,2.17284,0.43402,4.11629,1.26453,5.82508C220.65083,130.12885,221.757,131.57187,223.14061,132.74725z"/>
	<path class="st0" d="M257.7334,131.75641c1.45499,1.22343,3.03,2.05994,4.72311,2.5089
		c1.69308,0.44934,3.28912,0.67044,4.78625,0.66158c2.46414-0.01357,4.73047-0.49797,6.80264-1.45076
		c2.07129-0.95428,3.93744-2.20732,5.59485-3.76308c0.84625-0.79407,1.63403-1.64603,2.36652-2.55282
		c0.46048,1.28037,1.04688,2.41579,1.76596,3.39855c1.97238,2.69475,4.57565,4.03166,7.81262,4.01338
		c0.9166-0.0051,1.85699-0.26369,2.82123-0.7756c0.96146-0.51286,1.90005-1.18217,2.81393-2.00848
		c0.91202-0.82651,1.72971-1.74857,2.4476-2.76714c0.71881-1.01875,1.29294-2.0605,1.7215-3.12618
		c0.05219,0.6776,0.18954,1.47318,0.41205,2.38883c0.22253,0.91716,0.58969,1.77194,1.10159,2.56583
		c0.51187,0.79485,1.16751,1.46791,1.96686,2.0181c0.80124,0.55132,1.78015,0.8233,2.93936,0.81689
		c1.64182-0.00905,3.14905-0.57224,4.51984-1.69183c1.36984-1.11845,2.60513-2.53868,3.70761-4.25973
		c1.10065-1.72048,2.08044-3.60946,2.93845-5.66846c0.858-2.05673,1.5722-4.06615,2.14087-6.02525
		c0.56863-1.96004,0.99258-3.71256,1.27371-5.26058c0.28113-1.54764,0.42032-2.65913,0.41666-3.3354
		c-0.00552-0.91697-0.32416-1.66469-0.95505-2.24069c-0.63095-0.576-1.23624-0.8625-1.81583-0.8593
		c-0.53204,0.0032-0.89374,0.24767-1.08325,0.73056c-0.14194,0.38828-0.38092,1.13788-0.71149,2.2505
		c-0.33243,1.11337-0.72339,2.38338-1.17487,3.81001c-0.45142,1.42851-0.96146,2.94034-1.53195,4.5368
		c-0.57043,1.5974-1.19037,3.05061-1.85883,4.35812c-0.67029,1.30808-1.35333,2.38771-2.04742,3.23608
		c-0.69595,0.84988-1.40652,1.27604-2.13083,1.28018c-0.38733,0.00226-0.70145-0.17774-0.94501-0.53793
		c-0.24356-0.36132-0.3681-1.19366-0.3754-2.4976c-0.00458-0.77278,0.08603-1.73933,0.27286-2.90001
		c0.1868-1.16012,0.38641-2.30892,0.59705-3.4451c0.21057-1.13599,0.40927-2.17623,0.59885-3.11903
		c0.1868-0.94299,0.28018-1.58364,0.27835-1.9214c-0.00363-0.57978-0.24905-1.04986-0.73254-1.40873
		c-0.48529-0.36038-1.05484-0.62181-1.70776-0.78861c-0.65286-0.16474-1.31763-0.28103-1.99435-0.3502
		c-0.6767-0.06861-1.20868-0.10159-1.59512-0.09971c0.43402-0.1947,0.79572-0.41391,1.08325-0.658
		c0.28937-0.24258,0.43219-0.48478,0.4313-0.72698c-0.00275-0.53058-0.14008-1.1703-0.40933-1.91801
		c-0.27011-0.74658-0.73254-1.46867-1.38818-2.16549c-0.65652-0.69588-1.55392-1.29564-2.69116-1.79662
		c-1.13821-0.50099-2.6015-0.7464-4.388-0.73622c-2.17383,0.01244-4.22406,0.44727-6.15063,1.30261
		c-1.92844,0.85666-3.59958,2.12157-5.01428,3.79587c-1.4166,1.67449-2.54016,3.73424-3.37067,6.17774
		c-0.62848,1.84752-1.01291,3.89539-1.15649,6.14023c-0.03781,0.06955-0.07251,0.1376-0.11081,0.20734
		c-0.93311,1.69616-1.97424,3.247-3.12616,4.65441c-1.151,1.40741-2.42563,2.57394-3.82117,3.4992
		c-1.39642,0.92677-2.91461,1.39289-4.55646,1.40194c-1.25723,0.00735-2.27179-0.17944-3.04739-0.56206
		c-0.77466-0.38149-1.40558-0.90887-1.89182-1.58382c1.25452-0.10348,2.61612-0.52097,4.0867-1.25436
		c1.46878-0.73264,2.82675-1.74215,4.07758-3.02969c1.24808-1.28696,2.30203-2.82668,3.16095-4.61916
		c0.85983-1.79116,1.28287-3.79926,1.27005-6.02148c-0.01559-2.89737-0.82593-5.28395-2.43115-7.15842
		c-1.60428-1.87522-4.00061-2.80388-7.18814-2.7856c-2.51263,0.01376-4.6828,0.61823-6.51141,1.81171
		c-1.82956,1.19461-3.34317,2.71228-4.53906,4.55414c-1.19772,1.84338-2.09236,3.86391-2.68297,6.06465
		c-0.59155,2.20187-0.88182,4.29234-0.87083,6.27293c0.01927,3.38158,0.50546,6.1553,1.45961,8.324
		C255.07147,128.83623,256.27649,130.5322,257.7334,131.75641z M291.5112,114.93707
		c0.44775-1.83772,1.01825-3.48374,1.71048-4.93676c0.69138-1.45284,1.45779-2.62727,2.29837-3.52691
		c0.83969-0.89774,1.67114-1.34917,2.49252-1.35387c0.38644-0.00227,0.69958,0.09292,0.94406,0.28442
		c0.24173,0.19225,0.43677,0.4207,0.58331,0.68495c0.1456,0.26501,0.24356,0.51833,0.293,0.75903
		c0.04947,0.2422,0.07599,0.43407,0.07693,0.57921c0.00275,0.53152,0.4386,0.79484,1.3085,0.78975
		c-0.96423,0.48817-1.44312,1.2389-1.43671,2.25351c0.00183,0.38733-0.10257,1.02837-0.31589,1.92216
		c-0.21155,0.89586-0.50821,1.89954-0.88824,3.01196c-0.38092,1.11394-0.80948,2.26275-1.2847,3.4485
		c-0.47711,1.18763-0.97794,2.27726-1.50357,3.26943c-0.52649,0.99406-1.04022,1.81736-1.54382,2.47196
		c-0.50363,0.65574-0.99814,0.98445-1.47885,0.98709c-1.25723,0.00735-1.89365-1.67976-1.91287-5.06154
		C290.84274,118.63549,291.06158,116.77591,291.5112,114.93707z M263.0343,114.48112c0.25726-1.3782,0.61258-2.68382,1.064-3.9182
		c0.45145-1.23476,0.96606-2.2765,1.54114-3.12431c0.57501-0.84761,1.17569-1.27434,1.80386-1.27792
		c0.43497-0.00283,0.79758,0.18905,1.09058,0.57317c0.2912,0.38564,0.52286,0.85534,0.69504,1.40836
		c0.17307,0.55489,0.29666,1.10979,0.37268,1.66468c0.07504,0.55547,0.11444,1.00274,0.11627,1.33974
		c0.00549,1.06305-0.24173,2.09104-0.7435,3.08397c-0.50183,0.9935-1.11258,1.88955-1.83325,2.69117
		c-0.71973,0.80087-1.47699,1.49392-2.26996,2.07784c-0.79483,0.58411-1.5054,0.97559-2.13174,1.17162
		c-0.05032-0.38639-0.0769-0.73622-0.07874-1.05042c-0.00089-0.31401-0.00275-0.6399-0.00546-0.97879
		C262.64969,117.08069,262.77515,115.8597,263.0343,114.48112z"/>
	<path class="st0" d="M315.98532,146.02443l-6.82135-0.17586l-13.64273-0.34776c-9.09512-0.18037-18.19028-0.34398-27.2854-0.44783
		c-9.09515-0.14363-18.19028-0.17114-27.28542-0.25728l-27.28545-0.08105l-27.28542,0.08539
		c-9.09514,0.08368-18.19026,0.11516-27.2854,0.25746c-9.09514,0.10367-18.19028,0.26727-27.28542,0.44785l-13.64272,0.34549
		l-6.82136,0.17509l-6.82137,0.23184l6.82137,0.23183l6.82136,0.17511l13.64272,0.34567
		c9.09514,0.18057,18.19028,0.34418,27.28542,0.44765c9.09514,0.1423,18.19026,0.17398,27.2854,0.25766l27.28542,0.08521
		l27.28545-0.08105c9.09514-0.08614,18.19026-0.11346,27.28542-0.2571c9.09512-0.10403,18.19028-0.26746,27.2854-0.44803
		l13.64273-0.34775l6.82135-0.17586l6.82132-0.23334L315.98532,146.02443z"/>
	<path class="st0" d="M75.83119,43.32724c-0.02187-0.17529-0.15984-0.31364-0.33475-0.3355
		c-0.17944-0.02074-0.34304,0.07803-0.40788,0.24239c-0.42899,1.0981-0.75168,2.24145-0.95901,3.39874
		c-0.84365,4.72001,0.20206,9.486,2.94336,13.42003c2.74131,3.93403,6.85025,6.56488,11.57063,7.40816
		c1.05777,0.18924,2.11931,0.28197,3.17406,0.28197c4.20921,0,8.30685-1.48186,11.58495-4.25559
		c0.13496-0.11422,0.17492-0.30534,0.09726-0.46405c-0.0769-0.15833-0.24879-0.24691-0.42522-0.20846
		c-2.8559,0.59448-5.76157,0.63632-8.64009,0.12138C84.54441,61.16948,77.0684,53.28897,75.83119,43.32724z"/>
	<path class="st0" d="M56.31626,90.22856c-0.69272,3.10828,1.59561,5.25228,4.6947,4.45142
		c2.31321-0.59787,3.93234-2.08915,5.27651-3.94364c2.23212-3.07964,5.19644-5.18311,8.66817-6.63934
		c3.5326-1.48167,7.2708-2.13062,11.02572-2.65969c3.60061-0.50759,7.17181-1.08472,10.68222-2.08331
		c6.37701-1.81396,12.07402-4.79483,16.97163-9.30054c6.79021-6.24672,10.85039-14.0458,13.13288-22.86777
		c0.99529-3.84676-0.31435-6.87061-3.55853-9.0048c-1.99976-1.31562-4.11318-2.47592-6.24658-3.56724
		c-4.63302-2.37-9.52219-4.08557-14.59203-5.23099c-3.90872-0.88323-7.85091-1.63019-11.88337-1.69729
		c-2.24451-0.03732-4.48888-0.08256-6.7332-0.13005c-1.77971-0.03769-3.51385-0.25822-5.08882-1.19348
		c-1.39775-0.83008-2.13981-2.20074-2.98497-3.49825c-2.19258-3.36613-5.61587-4.60673-9.46009-3.52728
		c-2.70478,0.75959-5.15276,2.04882-7.5457,3.46829c-7.97747,4.73264-14.20422,11.2455-19.24149,18.96126
		C34.38204,49.50328,29.36574,57.26353,24.28422,64.981c-4.02884,6.11874-14.10314,26.28648-6.31604,48.02676
		c15.982,44.61934,59.53288,20.74525,62.84571,18.47234c3.08086,5.15898-9.18236,16.08745-6.79379,26.40202
		c0.75369-0.48779,17.78371-12.99161,17.73315-33.29826c-0.00825-3.30148-1.23438-10.90604-5.93082-9.26756
		c-4.97173,1.73443-8.8184,13.86938-27.40674,17.30186c-7.14188,1.31882-13.95556,0.75789-20.40448-2.61371
		c-9.03416-4.7234-13.97135-12.47836-15.87258-22.28366c-0.991-5.11073-1.03369-10.30836-0.84445-15.50352
		c0.20766-5.70126,1.21586-11.26643,3.03859-16.65724c3.68679-10.90359,10.28965-19.75422,19.40821-26.69663
		c5.9312-4.5155,12.39765-8.12364,19.38511-10.80482c6.96612-2.67289,14.16153-4.02922,21.59909-4.17171
		c7.83682-0.15003,15.42738,1.23947,22.78084,3.88522c2.70554,0.97351,5.34248,2.15267,7.96193,3.34539
		c1.87093,0.85176,3.21515,2.27274,3.82805,4.29988c0.54232,1.79399,0.15946,3.52935-0.50141,5.16935
		c-2.77589,6.88927-7.19866,12.42597-13.55061,16.39035c-6.27429,3.91593-13.22118,6.01772-20.38568,7.3175
		c-8.6186,1.56347-31.6439,5.20045-34.34374,6.15267c-26.9689,7.97248-15.29323,34.88172-13.54966,36.40108
		c0.21449-0.50024-2.6743-29.71764,18.67152-29.71764c0.35091-0.00019,0.70187,0.12553,1.20121,0.2209
		c-0.07177,0.60673-0.10965,1.126-0.20074,1.63566C56.56195,89.40659,56.40918,89.81145,56.31626,90.22856z"/>
	<path class="st0" d="M96.66358,49.42355c2.89246-0.25596,5.34883-2.32928,5.18462-4.37584
		c-0.15178-1.89087-2.99684-3.42022-5.85892-3.14956c-2.93903,0.27782-5.31128,2.29498-5.16827,4.39449
		C90.95446,48.25156,93.64106,49.6912,96.66358,49.42355z"/>
</g>
</svg>
