<svg id="full-logo" xmlns="http://www.w3.org/2000/svg" width="137.869" height="34.054" viewBox="0 0 137.869 34.054">
  <path id="Path_3" data-name="Path 3" d="M3.89,14.356V12.795A8.262,8.262,0,0,1,11.846,4.43,8.01,8.01,0,0,1,18.5,8.278a1.306,1.306,0,0,1-.39,1.654A1.3,1.3,0,0,1,16.437,9.5a5.438,5.438,0,0,0-4.591-2.621,5.71,5.71,0,0,0-5.521,5.911v1.692" transform="translate(3.341 3.805)"/>
  <path id="Path_4" data-name="Path 4" d="M63.6,26.848H51.109a9.92,9.92,0,0,1-9.889-9.889h0A9.92,9.92,0,0,1,51.109,7.07H63.6a9.92,9.92,0,0,1,9.889,9.889h0A9.932,9.932,0,0,1,63.6,26.848Z" transform="translate(35.401 6.072)" fill="#6e6fbf"/>
  <g id="Group_1" data-name="Group 1" transform="translate(0 4.536)">
    <path id="Path_5" data-name="Path 5" d="M68.275,13.426a7.888,7.888,0,0,0-5.669-2.472,7.805,7.805,0,0,0-5.632,2.472,8.777,8.777,0,0,0-2.286,5.892V29.374H47.9a3.5,3.5,0,0,1-3.513-3.532V3.667a1.227,1.227,0,0,0-2.454,0V25.843A3.5,3.5,0,0,1,38.4,29.374H34.221a3.5,3.5,0,0,1-3.532-3.532V3.667a1.227,1.227,0,0,0-2.454,0V25.843A3.5,3.5,0,0,1,24.7,29.374H8.049a5.71,5.71,0,0,1-5.911-5.521A5.7,5.7,0,0,1,8.049,18.37h14.09a1.384,1.384,0,0,0,1.227-1.227,1.367,1.367,0,0,0-1.227-1.227H14.406l-7.119.112-.335.019a8.571,8.571,0,0,0-4.48,2.193,7.631,7.631,0,0,0,0,11.246,8.634,8.634,0,0,0,5.892,2.324H24.741A6.012,6.012,0,0,0,29.5,29.374a6.012,6.012,0,0,0,4.759,2.435h4.164a6.012,6.012,0,0,0,4.759-2.435A5.969,5.969,0,0,0,47.9,31.809H64.575a6.117,6.117,0,0,0,5.985-5.985V19.3A8.8,8.8,0,0,0,68.275,13.426Zm-.149,7.7v4.721a3.5,3.5,0,0,1-3.532,3.532H57.122V19.318a5.516,5.516,0,1,1,11,0Z" transform="translate(0 -2.44)"/>
    <path id="Path_6" data-name="Path 6" d="M34.247,7.9a1.319,1.319,0,0,0,1.227-1.227V4A1.319,1.319,0,0,0,34.247,2.77,1.367,1.367,0,0,0,33.02,4V6.674A1.351,1.351,0,0,0,34.247,7.9Z" transform="translate(28.358 -2.157)"/>
  </g>
  <g id="Group_2" data-name="Group 2" transform="translate(74.706 11.971)">
    <path id="Path_7" data-name="Path 7" d="M69.541,28.523H51.231a11.041,11.041,0,1,1,0-22.083H69.541a11.041,11.041,0,0,1,0,22.083ZM51.231,9.284a8.2,8.2,0,0,0,0,16.395H69.541a8.2,8.2,0,0,0,0-16.395H51.231Z" transform="translate(-40.19 -6.44)"/>
  </g>
  <g id="Group_4" data-name="Group 4" transform="translate(85.134)">
    <g id="Group_3" data-name="Group 3">
      <path id="Path_8" data-name="Path 8" d="M47.64,18.886a1.833,1.833,0,0,0,1.84-1.84V9.759a6.078,6.078,0,1,1,12.157,0v7.287a1.84,1.84,0,0,0,3.68,0V9.759a9.759,9.759,0,0,0-19.518,0v7.287A1.844,1.844,0,0,0,47.64,18.886Z" transform="translate(-45.8)"/>
    </g>
  </g>
  <g id="Group_11" data-name="Group 11" transform="translate(116.753 19.834)">
    <g id="Group_6" data-name="Group 6" transform="translate(7.844)">
      <g id="Group_5" data-name="Group 5">
        <path id="Path_9" data-name="Path 9" d="M68.536,13.681H78.8a1.506,1.506,0,1,0,0-3.011H68.536a1.506,1.506,0,1,0,0,3.011Z" transform="translate(-67.03 -10.67)"/>
      </g>
    </g>
    <g id="Group_8" data-name="Group 8">
      <g id="Group_7" data-name="Group 7">
        <path id="Path_10" data-name="Path 10" d="M64.316,13.681h3.439a1.506,1.506,0,0,0,0-3.011H64.316a1.5,1.5,0,0,0-1.506,1.506A1.523,1.523,0,0,0,64.316,13.681Z" transform="translate(-62.81 -10.67)"/>
      </g>
    </g>
    <g id="Group_10" data-name="Group 10" transform="translate(5.558 5.13)">
      <g id="Group_9" data-name="Group 9">
        <path id="Path_11" data-name="Path 11" d="M67.306,16.441h5.316a1.506,1.506,0,1,0,0-3.011H67.306a1.506,1.506,0,1,0,0,3.011Z" transform="translate(-65.8 -13.43)"/>
      </g>
    </g>
  </g>
</svg>
